<svg width="72" height="72" fill="none" xmlns="http://www.w3.org/2000/svg"><path d="M26.822 70.094c12.596-5.718 24.21-3.118 30.28-5.872 6.07-2.756 17.234-12.032 4.56-39.956C48.988-3.658 29.98.024 23.302 3.056c-31.264 14.188-18.79 77.162 3.52 67.038z" fill="#ECEFF2"/><path d="M27.294 19.7h-.18l4.686-3.748c1.02-.812.44-2.452-.854-2.452H18.132c-1.296 0-1.874 1.64-.854 2.452l4.684 3.748h-.18c-4.768 2.796-8.612 10.76-8.612 16.534 0 4.134 2.066 8.266 6.888 8.266h9.3c4.822 0 6.888-4.134 6.888-8.266.004-5.774-4.184-13.738-8.952-16.534z" fill="#F3F3F1"/><path d="M17.672 36.234c0-5.772 3.844-13.736 8.612-16.534h.18l-4.684-3.748c-1.02-.812-.44-2.452.854-2.452h-4.5c-1.296 0-1.874 1.64-.854 2.452l4.684 3.748h-.18c-4.768 2.796-8.612 10.76-8.612 16.534 0 4.134 2.066 8.266 6.888 8.266h4.5c-4.822 0-6.888-4.134-6.888-8.266z" fill="#E1E6EA"/><path d="M49.716 19.7h-.18l4.684-3.748c1.02-.812.44-2.452-.854-2.452H40.552c-1.296 0-1.874 1.64-.854 2.452l4.684 3.748h-.18c-4.768 2.796-8.612 10.76-8.612 16.534 0 4.134 2.066 8.266 6.888 8.266h9.3c4.822 0 6.888-4.134 6.888-8.266.006-5.774-4.182-13.738-8.95-16.534z" fill="#F3F3F1"/><path d="M40.094 36.234c0-5.772 3.844-13.736 8.612-16.534h.18L44.2 15.952c-1.02-.812-.44-2.452.854-2.452h-4.5c-1.296 0-1.874 1.64-.854 2.452l4.684 3.748h-.18c-4.768 2.796-8.612 10.76-8.612 16.534 0 4.134 2.066 8.266 6.888 8.266h4.5c-4.818 0-6.886-4.134-6.886-8.266z" fill="#E1E6EA"/><path d="M38.835 33.7h-.18l4.684-3.748c1.02-.812.44-2.452-.854-2.452H29.671c-1.296 0-1.874 1.64-.854 2.452l4.684 3.748h-.18c-4.768 2.796-8.612 10.76-8.612 16.534 0 4.134 2.066 8.266 6.888 8.266h9.3c4.822 0 6.888-4.134 6.888-8.266.004-5.774-4.184-13.738-8.95-16.534z" fill="#2A6CEA"/><path d="M35.06 52.4c-.396 0-.78-.158-1.06-.44l-4-4 2.122-2.122 2.778 2.778L39.86 42l2.398 1.8-6 8c-.26.348-.658.566-1.094.596-.034.004-.068.004-.104.004z" fill="#fff"/><path d="M29.213 50.234c0-5.772 3.844-13.736 8.612-16.534h.18l-4.684-3.748c-1.02-.812-.44-2.452.854-2.452h-4.5c-1.296 0-1.874 1.64-.854 2.452l4.684 3.748h-.18c-4.768 2.796-8.612 10.76-8.612 16.534 0 4.134 2.066 8.266 6.888 8.266h4.5c-4.822 0-6.888-4.134-6.888-8.266z" fill="#191C1F" fill-opacity=".1"/><path d="M59.932 54.82l2.828-2.83 1.414 1.415-2.828 2.829-1.414-1.415zM51.8 62.949l2.83-2.829 1.413 1.414-2.828 2.829-1.414-1.414zm0-9.899l1.415-1.414 2.828 2.829-1.414 1.414-2.828-2.828zm8.13 8.131l1.414-1.414 2.828 2.828-1.414 1.415-2.828-2.829z" fill="#C2C8CD"/><path d="M28.38 20.872l-1.873-2.344L30.919 15H18.817l4.412 3.528-1.874 2.344-4.684-3.748a2.842 2.842 0 01-.92-3.2A2.84 2.84 0 0118.46 12h12.814c1.238 0 2.3.756 2.71 1.926a2.846 2.846 0 01-.92 3.2l-4.684 3.746z" fill="#191C1F"/><path d="M17.633 18.2h14.466v3H17.633v-3z" fill="#191C1F"/><path d="M20.39 46C14.594 46 12 41.094 12 36.232c0-5.836 3.84-14.594 9.352-17.826l1.518 2.586C18.75 23.41 15 30.674 15 36.232c0 1.13.26 6.768 5.39 6.768v3zm30.256-25.128l-1.874-2.344L53.184 15H41.082l4.412 3.528-1.874 2.344-4.684-3.746a2.85 2.85 0 01-.92-3.202A2.842 2.842 0 0140.726 12H53.54c1.238 0 2.3.756 2.71 1.926a2.846 2.846 0 01-.92 3.2l-4.684 3.746z" fill="#191C1F"/><path d="M39.9 18.2h14.466v3H39.9v-3z" fill="#191C1F"/><path d="M51.61 46v-3c5.13 0 5.39-5.636 5.39-6.768 0-5.558-3.75-12.822-7.87-15.24l1.518-2.586C56.158 21.638 60 30.396 60 36.232 60 41.094 57.406 46 51.612 46z" fill="#191C1F"/></svg>