<svg width="72" height="72" fill="none" xmlns="http://www.w3.org/2000/svg"><path d="M8.334 55.246c0-13.834-7.166-23.334-7.166-30S5 4.58 35.666 4.58c30.666 0 35.166 18.834 35.166 26.166.002 34.334-62.498 49-62.498 24.5z" fill="#ECEFF2"/><path d="M53.25 16.5h2v4h-2v-4zm4.5 6h4v2h-4v-2z" fill="#C2C8CD"/><path d="M42.5 48.64V17.5c0-2.21-1.79-4-4-4h-21c-2.21 0-4 1.79-4 4v31.14c0 2.21 1.79 4 4 4h21c2.21 0 4-1.79 4-4z" fill="#F3F3F1"/><path d="M48 58.5s10.5-4.464 10.5-13.392v-8.036L48 33.5l-10.5 3.572v8.036C37.5 54.036 48 58.5 48 58.5z" fill="#2A6CEA"/><path d="M18 48.64V17.5c0-2.21 1.79-4 4-4h-4.5c-2.21 0-4 1.79-4 4v31.14c0 2.21 1.79 4 4 4H22c-2.21 0-4-1.79-4-4z" fill="#E1E6EA"/><path d="M42 45.108v-8.036l8.25-2.806L48 33.5l-10.5 3.572v8.036C37.5 54.036 48 58.5 48 58.5s.942-.406 2.25-1.198C47.166 55.434 42 51.376 42 45.108z" fill="#191C1F" fill-opacity=".1"/><path d="M30.5 54h-13a5.505 5.505 0 01-5.5-5.5v-31c0-3.034 2.466-5.5 5.5-5.5h21c3.034 0 5.5 2.466 5.5 5.5v11h-3v-11c0-1.378-1.122-2.5-2.5-2.5h-21a2.503 2.503 0 00-2.5 2.5v31c0 1.378 1.122 2.5 2.5 2.5h13v3z" fill="#191C1F"/><path d="M20.56 37.56l-2.12-2.12 5-5a1.495 1.495 0 011.803-.242l2.546 1.456 5.692-5.254 2.036 2.206-6.5 6a1.502 1.502 0 01-1.761.2l-2.506-1.432-4.19 4.186z" fill="#191C1F"/><path d="M36 34h-3v-5h-5v-3h6.5a1.5 1.5 0 011.5 1.5V34z" fill="#191C1F"/><path d="M47.5 51c-.397 0-.78-.158-1.06-.44l-4-4 2.122-2.122 2.778 2.778L52.3 40.6l2.397 1.8-6 8c-.26.348-.658.566-1.094.596-.034.004-.068.004-.104.004z" fill="#fff"/></svg>