<svg width="72" height="72" fill="none" xmlns="http://www.w3.org/2000/svg"><path d="M69.807 40.71c-7.564-11.582-6.76-23.454-10.406-29.036-3.646-5.582-14.512-15.206-40.186 1.564S.07 48.238 4.083 54.376C22.859 83.12 83.205 61.222 69.807 40.71z" fill="#ECEFF2"/><path d="M37.5 22.892c0 .46-.302.856-.72.992l-9.714 3.182-3.182 9.714c-.136.418-.532.72-.992.72-.448 0-.824-.282-.97-.668L13.574 14.92a.872.872 0 01-.074-.376c0-.574.47-1.044 1.044-1.044.136 0 .26.02.376.074l21.914 8.348c.384.144.666.52.666.97z" fill="#F3F3F1"/><path d="M18.074 14.92c-.022-.048-.02-.106-.032-.156l-3.122-1.19a.872.872 0 00-.376-.074c-.574 0-1.044.47-1.044 1.044a.9.9 0 00.072.376l8.348 21.914c.146.386.522.668.97.668.46 0 .856-.302.992-.72l1.164-3.554-6.972-18.308z" fill="#E1E6EA"/><path d="M45 58.5c7.456 0 13.5-6.044 13.5-13.5S52.456 31.5 45 31.5 31.5 37.544 31.5 45 37.544 58.5 45 58.5z" fill="#2A6CEA"/><path d="M36 45c0-6.688 4.868-12.224 11.25-13.298A13.466 13.466 0 0045 31.5c-7.456 0-13.5 6.044-13.5 13.5S37.544 58.5 45 58.5c.768 0 1.516-.08 2.25-.202C40.868 57.224 36 51.688 36 45z" fill="#191C1F" fill-opacity=".1"/><path d="M60.258 25.363l1.414-1.414 2.828 2.829-1.414 1.414-2.828-2.829zm-8.129-8.133l1.414-1.414 2.828 2.828-1.414 1.414-2.828-2.828zm8.484 1.416l2.829-2.829 1.414 1.415-2.828 2.828-1.415-1.414zm-8.129 8.129l2.829-2.828 1.414 1.414-2.828 2.828-1.415-1.414z" fill="#C2C8CD"/><path d="M49.55 51.66l-5.5-4.5A1.49 1.49 0 0143.5 46v-8.5h3v7.79l4.95 4.05-1.9 2.32z" fill="#fff"/><path d="M22.89 39a2.553 2.553 0 01-2.374-1.636l-8.346-21.91c-.104-.23-.17-.56-.17-.912A2.544 2.544 0 0114.542 12c.352 0 .682.066.982.2l21.84 8.318a2.553 2.553 0 011.634 2.374 2.54 2.54 0 01-1.754 2.418l-8.992 2.946-2.946 8.992A2.537 2.537 0 0122.89 39zm-7.556-23.664l7.526 19.748 2.78-8.486a1.5 1.5 0 01.958-.958l8.486-2.78-19.75-7.524zm-.948-.362c.006.002.014.006.024.008l-.024-.008zm.56-.66l.026.068-.026-.068z" fill="#191C1F"/></svg>